<svg width="688" height="114" viewBox="0 0 688 114" fill="none" xmlns="http://www.w3.org/2000/svg">
<g clip-path="url(#clip0_822_102)">
<path d="M2.10156 2.09961V112.2H344.202V2.09961H2.10156ZM95.4016 87.7996H79.5016L68.6016 45.7996H68.4016L57.5016 87.7996H42.2016L26.2016 26.3996H41.5016L50.7016 70.1996H50.9016L61.7016 26.3996H75.7016L86.9016 70.1996H87.1016L96.2016 26.3996H111.302L95.4016 87.7996ZM133.002 87.7996H117.702V26.3996H133.002V87.7996ZM184.102 87.7996H144.802V26.3996H160.102V74.7996H184.102V87.7996ZM231.902 87.7996H192.602V26.3996H208.002V74.7996H232.002V87.7996H231.902ZM255.802 87.7996H240.502V26.3996H255.802V87.7996ZM289.402 49.1996L295.302 50.0996C307.502 52.0996 317.602 55.8996 317.602 67.5996C317.602 85.9996 301.002 89.4996 289.502 89.4996C279.102 89.4996 270.202 86.0996 261.802 76.9996L273.502 69.3996C278.802 74.1996 283.902 77.0996 291.302 77.0996C295.402 77.0996 302.802 75.3996 302.802 69.9996C302.802 66.8996 300.502 65.2996 295.902 64.5996L283.102 62.4996C271.702 60.6996 265.502 54.6996 265.502 45.5996C265.502 30.7996 277.502 24.6996 290.602 24.6996C300.802 24.6996 310.802 28.7996 317.702 36.4996L306.102 44.8996C302.002 39.9996 296.102 37.0996 289.602 37.0996C286.102 37.0996 280.902 39.2996 280.902 43.2996C280.902 46.5996 283.602 48.1996 289.402 49.1996Z" fill="white"/>
<path d="M386.101 54.8992C385.501 52.3992 383.101 50.7992 380.401 50.7992C375.901 50.7992 373.901 54.3992 373.901 58.3992C373.901 62.3992 375.901 65.9992 380.401 65.9992C383.501 65.9992 385.901 63.7992 386.401 60.5992L388.901 60.8992C388.101 65.1992 384.401 67.8992 380.401 67.8992C374.701 67.8992 371.301 63.9992 371.301 58.2992C371.301 52.5992 374.801 48.6992 380.401 48.6992C384.301 48.6992 387.601 50.5992 388.601 54.2992L386.101 54.8992Z" fill="white"/>
<path d="M408.001 48.7988C413.701 48.7988 417.101 52.6988 417.101 58.3988C417.101 64.0988 413.601 67.9988 408.001 67.9988C402.401 67.9988 398.901 64.0988 398.901 58.3988C398.801 52.6988 402.301 48.7988 408.001 48.7988ZM408.001 65.9988C412.501 65.9988 414.501 62.3988 414.501 58.3988C414.501 54.3988 412.501 50.7988 408.001 50.7988C403.501 50.7988 401.501 54.3988 401.501 58.3988C401.501 62.3988 403.501 65.9988 408.001 65.9988Z" fill="white"/>
<path d="M428 49.2988H430.4L440 63.6989H440.1V49.2988H442.3V67.4988H439.9L430.2 53.1989H430.1V67.4988H428V49.2988Z" fill="white"/>
<path d="M465.202 54.5996C465.102 51.8996 463.002 50.6996 460.502 50.6996C458.802 50.6996 456.402 51.2996 456.402 53.3996C456.402 58.1996 467.902 54.5996 467.902 62.1996C467.902 66.0996 464.402 67.7996 460.902 67.7996C456.602 67.7996 453.202 66.0996 452.902 61.3996L455.502 61.1996C455.602 64.4996 457.702 65.7996 460.802 65.7996C463.102 65.7996 465.302 64.7996 465.302 62.1996C465.302 57.1996 453.802 60.5996 453.802 53.7996C453.802 50.2996 457.202 48.5996 460.302 48.5996C464.102 48.5996 467.102 50.2996 467.602 54.2996L465.202 54.5996Z" fill="white"/>
<path d="M482.602 51.3988H477.102V49.2988H490.402V51.3988H485.002V67.4988H482.602V51.3988Z" fill="white"/>
<path d="M500.5 49.2988H508.7C511.6 49.2988 514.5 50.3988 514.5 54.4988C514.5 56.7988 513.5 59.0988 510.3 59.5988L515.3 67.4988H512.4L507.5 59.7988H502.9V67.4988H500.5V49.2988ZM502.9 57.6989H508.3C510.5 57.6989 512.1 56.9988 512.1 54.5988C512.1 52.1988 510.5 51.4988 508.3 51.4988H502.9V57.6989Z" fill="white"/>
<path d="M539.202 61.4988C539.202 65.5988 536.502 67.8988 532.302 67.8988C528.002 67.8988 525.402 65.5988 525.402 61.4988V49.2988H527.802V61.0988C527.802 64.2988 529.202 65.8988 532.302 65.8988C535.402 65.8988 536.802 64.2988 536.802 61.0988V49.2988H539.202V61.4988Z" fill="white"/>
<path d="M564.999 54.8992C564.399 52.3992 561.999 50.7992 559.299 50.7992C554.799 50.7992 552.799 54.3992 552.799 58.3992C552.799 62.3992 554.799 65.9992 559.299 65.9992C562.399 65.9992 564.799 63.7992 565.299 60.5992L567.799 60.8992C566.999 65.1992 563.299 67.8992 559.299 67.8992C553.599 67.8992 550.199 63.9992 550.199 58.2992C550.199 52.5992 553.699 48.6992 559.299 48.6992C563.199 48.6992 566.499 50.5992 567.499 54.2992L564.999 54.8992Z" fill="white"/>
<path d="M582.402 51.3988H576.902V49.2988H590.202V51.3988H584.702V67.4988H582.302V51.3988H582.402Z" fill="white"/>
<path d="M600.602 49.2988H603.002V67.4988H600.602V49.2988Z" fill="white"/>
<path d="M623.202 48.7988C628.902 48.7988 632.302 52.6988 632.302 58.3988C632.302 64.0988 628.802 67.9988 623.202 67.9988C617.502 67.9988 614.102 64.0988 614.102 58.3988C614.102 52.6988 617.602 48.7988 623.202 48.7988ZM623.202 65.9988C627.702 65.9988 629.702 62.3988 629.702 58.3988C629.702 54.3988 627.702 50.7988 623.202 50.7988C618.702 50.7988 616.702 54.3988 616.702 58.3988C616.702 62.3988 618.702 65.9988 623.202 65.9988Z" fill="white"/>
<path d="M643.202 49.2988H645.602L655.202 63.6989H655.302V49.2988H657.502V67.4988H655.102L645.402 53.1989H645.302V67.4988H643.102V49.2988H643.202Z" fill="white"/>
<path d="M687.802 113.7H0.601562V0.5H687.802V113.7ZM3.60156 110.7H684.802V3.5H3.60156V110.7Z" fill="white"/>
</g>
<defs>
<clipPath id="clip0_822_102">
<rect width="688" height="114" fill="white"/>
</clipPath>
</defs>
</svg>
